<svg width="19" height="16" viewBox="0 0 19 16" fill="none" xmlns="http://www.w3.org/2000/svg">
<path d="M18.7015 2.2622C18.026 2.56922 17.298 2.77097 16.5436 2.86746C17.3155 2.40255 17.912 1.66571 18.1927 0.779742C17.4646 1.21834 16.6576 1.52536 15.8067 1.7008C15.1137 0.946409 14.1401 0.507812 13.0348 0.507812C10.9734 0.507812 9.28918 2.19202 9.28918 4.27097C9.28918 4.56922 9.32427 4.85869 9.38567 5.13062C6.26287 4.97272 3.48216 3.47272 1.63129 1.20079C1.30673 1.75343 1.12252 2.40255 1.12252 3.08676C1.12252 4.39378 1.78041 5.55167 2.79795 6.20957C2.17515 6.20957 1.5962 6.03413 1.08743 5.77097V5.79729C1.08743 7.62185 2.38567 9.14816 4.10497 9.49027C3.55298 9.64133 2.97348 9.66235 2.41199 9.55167C2.65024 10.2995 3.11685 10.9538 3.74621 11.4227C4.37558 11.8915 5.13607 12.1514 5.92076 12.1657C4.59061 13.2187 2.94181 13.7879 1.24532 13.7797C0.947077 13.7797 0.648832 13.7622 0.350586 13.7271C2.01725 14.7973 3.99971 15.4201 6.12252 15.4201C13.0348 15.4201 16.833 9.68325 16.833 4.70957C16.833 4.5429 16.833 4.385 16.8243 4.21834C17.5611 3.69202 18.1927 3.02536 18.7015 2.2622Z" fill="white"/>
</svg>
