<svg width="16" height="16" viewBox="0 0 16 16" fill="none" xmlns="http://www.w3.org/2000/svg">
<g clip-path="url(#clip0_39_2931)">
<path d="M13.7861 11.1361C12.8196 10.3094 11.8386 9.80864 10.8839 10.6341L10.3139 11.133C9.89678 11.4951 9.12129 13.1872 6.12297 9.73808C3.12527 6.29332 4.90915 5.75697 5.32687 5.39794L5.90006 4.89843C6.84976 4.07112 6.49136 3.02963 5.8064 1.95755L5.39305 1.30819C4.70498 0.238608 3.95571 -0.463831 3.00351 0.362237L2.48901 0.811798C2.06818 1.11837 0.891824 2.1149 0.606478 4.00805C0.263063 6.27958 1.34638 8.88079 3.82833 11.7349C6.30716 14.5902 8.73417 16.0244 11.0332 15.9995C12.9438 15.9789 14.0977 14.9536 14.4586 14.5809L14.9749 14.1307C15.9246 13.3052 15.3346 12.4648 14.3674 11.6362L13.7861 11.1361Z" fill="white"/>
</g>
<defs>
<clipPath id="clip0_39_2931">
<rect width="16" height="16" fill="white"/>
</clipPath>
</defs>
</svg>
