<svg width="17" height="17" viewBox="0 0 17 17" fill="none" xmlns="http://www.w3.org/2000/svg">
<path d="M8.67184 0.632812C9.37008 0.632812 11.7376 0.828427 12.8552 3.32843C13.2289 4.16965 13.1394 5.59948 13.0657 6.74772L13.0639 6.78895C13.0543 6.91702 13.0482 7.03281 13.0429 7.1486C13.1296 7.19478 13.2272 7.21661 13.3253 7.21176C13.5368 7.20036 13.7903 7.12755 14.0543 7.00036C14.1559 6.95004 14.2681 6.92477 14.3815 6.92667C14.5096 6.92667 14.635 6.94685 14.7403 6.98983C15.0569 7.09509 15.2578 7.32755 15.2578 7.58106C15.2692 7.89772 14.9832 8.17316 14.4025 8.40474C14.3403 8.42492 14.2543 8.45825 14.1604 8.48895C13.842 8.58457 13.356 8.74246 13.2192 9.06001C13.156 9.21878 13.1762 9.4293 13.3052 9.67141L13.3157 9.68281C13.3578 9.77843 14.3929 12.1346 16.6964 12.5153C16.7809 12.5289 16.8575 12.5728 16.9119 12.6389C16.9663 12.7049 16.9948 12.7885 16.992 12.874C16.992 12.9267 16.9806 12.9784 16.9604 13.0328C16.7911 13.4337 16.0631 13.7302 14.7411 13.9284C14.6999 13.9925 14.6569 14.1933 14.6253 14.3311C14.606 14.4574 14.5727 14.5846 14.5315 14.7205C14.478 14.9118 14.3411 15.0056 14.1403 15.0056H14.1192C13.9913 14.9997 13.8642 14.9824 13.7394 14.9539C13.4442 14.8902 13.1431 14.8584 12.8411 14.8591C12.6306 14.8591 12.4201 14.8697 12.199 14.9118C11.7753 14.9854 11.406 15.239 10.9832 15.5346C10.3806 15.9565 9.69465 16.4433 8.65956 16.4433C8.61745 16.4433 8.57535 16.4328 8.53149 16.4328H8.4271C7.39114 16.4328 6.7157 15.9565 6.11394 15.524C5.69201 15.2275 5.33324 14.9749 4.90956 14.9004C4.69317 14.868 4.47483 14.8504 4.25605 14.8477C3.87447 14.8477 3.57973 14.9109 3.35868 14.953C3.20956 14.9837 3.08324 15.0047 2.9771 15.0047C2.8846 15.0118 2.79258 14.986 2.71719 14.9319C2.6418 14.8779 2.58785 14.799 2.56482 14.7091C2.52272 14.574 2.50254 14.4346 2.47096 14.3091C2.43763 14.1811 2.3964 13.9618 2.3543 13.9074C1.00079 13.7504 0.272718 13.4539 0.104296 13.0425C0.0810342 12.9926 0.0679144 12.9386 0.0657001 12.8837C0.0623279 12.798 0.090594 12.7141 0.145111 12.6479C0.199628 12.5818 0.276585 12.538 0.361314 12.5249C2.66395 12.1442 3.69903 9.78895 3.74202 9.68983L3.75342 9.66965C3.88061 9.42667 3.91131 9.21351 3.83763 9.0565C3.70079 8.75036 3.21395 8.59246 2.89903 8.48632C2.81524 8.46515 2.73337 8.43699 2.6543 8.40211C1.87359 8.09509 1.76745 7.74597 1.81044 7.50386C1.87359 7.16702 2.285 6.94509 2.63412 6.94509C2.73675 6.94509 2.82447 6.96527 2.9043 6.99772C3.19991 7.13369 3.46131 7.20913 3.68324 7.20913C3.79695 7.2133 3.90976 7.18759 4.01044 7.13457L3.97447 6.73281C3.9043 5.58632 3.81482 4.15825 4.19114 3.32141C5.27535 0.83369 7.63763 0.642462 8.335 0.642462L8.62886 0.632812H8.67184Z" fill="white"/>
</svg>
