<svg width="126" height="22" viewBox="0 0 126 22" fill="none" xmlns="http://www.w3.org/2000/svg">
<path d="M5.02822 16C3.47355 16 2.21955 15.45 1.26622 14.35C0.444886 13.4113 0.0342188 12.2893 0.0342188 10.984C0.0342188 9.32667 0.466886 8.05067 1.33222 7.156C2.34422 6.12933 3.63489 5.616 5.20422 5.616C6.33355 5.616 7.28689 5.87267 8.06422 6.386C9.23755 7.16333 9.82422 8.278 9.82422 9.73V13.162H10.5282V16H9.80222C9.62622 17.6133 8.98089 18.8747 7.86622 19.784C7.19155 20.356 6.35555 20.7667 5.35822 21.016C4.68355 21.192 3.97222 21.28 3.22422 21.28C2.90155 21.28 2.56422 21.258 2.21222 21.214L0.738219 19.41V18.222C1.41289 18.3687 2.05822 18.442 2.67422 18.442C4.72755 18.442 5.94489 17.628 6.32622 16H5.02822ZM6.43622 9.752C6.43622 9.29733 6.26755 8.94533 5.93022 8.696C5.71022 8.53467 5.46089 8.454 5.18222 8.454C4.63955 8.454 4.19955 8.66667 3.86222 9.092C3.53955 9.50267 3.37822 10.0527 3.37822 10.742C3.37822 12.3553 4.17755 13.162 5.77622 13.162H6.43622V9.752ZM14.4508 13.162V16H10.3807V13.162H14.4508ZM18.3609 13.162V16H14.2909V13.162H18.3609ZM22.2711 13.162V16H18.2011V13.162H22.2711ZM26.1812 13.162V16H22.1112V13.162H26.1812ZM30.0914 13.162V16H26.0214V13.162H30.0914ZM34.0015 13.162V16H29.9315V13.162H34.0015ZM37.9117 13.162V16H33.8417V13.162H37.9117ZM41.8218 13.162V16H37.7518V13.162H41.8218ZM45.732 13.162V16H41.662V13.162H45.732ZM49.6422 13.162V16H45.5722V13.162H49.6422ZM53.5523 13.162V16H49.4823V13.162H53.5523ZM57.4625 13.162V16H53.3925V13.162H57.4625ZM61.3726 13.162V16H57.3026V13.162H61.3726ZM65.2828 13.162V16H61.2128V13.162H65.2828ZM69.1929 13.162V16H65.1229V13.162H69.1929ZM73.1031 13.162V16H69.0331V13.162H73.1031ZM77.0133 13.162V16H72.9432V13.162H77.0133ZM80.9234 13.162V16H76.8534V13.162H80.9234ZM84.8336 13.162V16H80.7636V13.162H84.8336ZM88.7437 13.162V16H84.6737V13.162H88.7437ZM92.6539 13.162V16H88.5839V13.162H92.6539ZM95.42 6.254C96.8867 5.82867 98.1554 5.616 99.226 5.616C100.986 5.616 102.475 6.166 103.692 7.266C104.807 8.29267 105.364 9.54667 105.364 11.028V13.272C105.364 14.02 105.1 14.658 104.572 15.186C104.029 15.7287 103.377 16 102.614 16H92.494V13.162H101.646C101.851 13.162 101.954 13.0593 101.954 12.854V11.402C101.954 10.434 101.536 9.67867 100.7 9.136C100.04 8.71067 99.2774 8.498 98.412 8.498C97.6054 8.498 96.608 8.652 95.42 8.96V6.254ZM98.94 17.012C99.4094 17.012 99.8127 17.1807 100.15 17.518C100.487 17.8553 100.656 18.266 100.656 18.75C100.656 19.2193 100.487 19.6227 100.15 19.96C99.8127 20.2973 99.4094 20.466 98.94 20.466C98.456 20.466 98.0454 20.2973 97.708 19.96C97.3854 19.6227 97.224 19.2193 97.224 18.75C97.224 18.266 97.3854 17.8553 97.708 17.518C98.0454 17.1807 98.456 17.012 98.94 17.012ZM112.772 16C111.218 16 109.964 15.45 109.01 14.35C108.189 13.4113 107.778 12.2893 107.778 10.984C107.778 9.32667 108.211 8.05067 109.076 7.156C110.088 6.12933 111.379 5.616 112.948 5.616C114.078 5.616 115.031 5.87267 115.808 6.386C116.982 7.16333 117.568 8.278 117.568 9.73V13.162H118.272V16H117.546C117.37 17.6133 116.725 18.8747 115.61 19.784C114.936 20.356 114.1 20.7667 113.102 21.016C112.428 21.192 111.716 21.28 110.968 21.28C110.646 21.28 110.308 21.258 109.956 21.214L108.482 19.41V18.222C109.157 18.3687 109.802 18.442 110.418 18.442C112.472 18.442 113.689 17.628 114.07 16H112.772ZM114.18 9.752C114.18 9.29733 114.012 8.94533 113.674 8.696C113.454 8.53467 113.205 8.454 112.926 8.454C112.384 8.454 111.944 8.66667 111.606 9.092C111.284 9.50267 111.122 10.0527 111.122 10.742C111.122 12.3553 111.922 13.162 113.52 13.162H114.18V9.752ZM125.473 0.248V13.272C125.473 13.9173 125.268 14.4967 124.857 15.01C124.3 15.67 123.588 16 122.723 16H118.125V13.162H121.755C121.843 13.162 121.916 13.14 121.975 13.096C122.048 13.0373 122.085 12.9567 122.085 12.854V0.248H125.473Z" fill="white"/>
</svg>
