<svg width="21" height="22" viewBox="0 0 21 22" fill="none" xmlns="http://www.w3.org/2000/svg">
<path d="M3.1001 3.19995C3.79176 3.46428 4.7401 3.66968 5.16676 4.34655C5.46343 4.81888 5.46343 5.44548 5.46343 6.69955V9.05862C5.46343 11.6084 5.51426 12.449 6.20676 13.2412C6.89843 14.0333 8.01343 14.0333 10.2418 14.0333H14.4793C16.7009 14.0333 17.1826 13.5124 17.6093 11.266C17.7959 10.2867 17.9843 9.31949 18.0793 8.34275C18.2593 6.49328 17.2684 5.90395 15.6909 5.90395H5.46343M14.3501 18.8C14.6816 18.8 14.9996 18.663 15.234 18.4192C15.4684 18.1754 15.6001 17.8447 15.6001 17.5C15.6001 17.1552 15.4684 16.8245 15.234 16.5807C14.9996 16.3369 14.6816 16.2 14.3501 16.2C14.0186 16.2 13.7006 16.3369 13.4662 16.5807C13.2318 16.8245 13.1001 17.1552 13.1001 17.5C13.1001 17.8447 13.2318 18.1754 13.4662 18.4192C13.7006 18.663 14.0186 18.8 14.3501 18.8ZM7.68343 18.8C8.01495 18.8 8.33289 18.663 8.56731 18.4192C8.80173 18.1754 8.93343 17.8447 8.93343 17.5C8.93343 17.1552 8.80173 16.8245 8.56731 16.5807C8.33289 16.3369 8.01495 16.2 7.68343 16.2C7.35191 16.2 7.03397 16.3369 6.79955 16.5807C6.56513 16.8245 6.43343 17.1552 6.43343 17.5C6.43343 17.8447 6.56513 18.1754 6.79955 18.4192C7.03397 18.663 7.35191 18.8 7.68343 18.8Z" fill="#147382"/>
<path d="M3.1001 3.19995C3.79176 3.46428 4.7401 3.66968 5.16676 4.34655C5.46343 4.81888 5.46343 5.44548 5.46343 6.69955V9.05862C5.46343 11.6084 5.51426 12.449 6.20676 13.2412C6.89843 14.0333 8.01343 14.0333 10.2418 14.0333H14.4793C16.7009 14.0333 17.1826 13.5124 17.6093 11.266C17.7959 10.2867 17.9843 9.31948 18.0793 8.34275C18.2593 6.49328 17.2684 5.90395 15.6909 5.90395H5.46343M14.3501 18.8C14.6816 18.8 14.9996 18.663 15.234 18.4192C15.4684 18.1754 15.6001 17.8447 15.6001 17.5C15.6001 17.1552 15.4684 16.8245 15.234 16.5807C14.9996 16.3369 14.6816 16.2 14.3501 16.2C14.0186 16.2 13.7006 16.3369 13.4662 16.5807C13.2318 16.8245 13.1001 17.1552 13.1001 17.5C13.1001 17.8447 13.2318 18.1754 13.4662 18.4192C13.7006 18.663 14.0186 18.8 14.3501 18.8ZM7.68343 18.8C8.01495 18.8 8.33289 18.663 8.56731 18.4192C8.80173 18.1754 8.93343 17.8447 8.93343 17.5C8.93343 17.1552 8.80173 16.8245 8.56731 16.5807C8.33289 16.3369 8.01495 16.2 7.68343 16.2C7.35191 16.2 7.03397 16.3369 6.79955 16.5807C6.56513 16.8245 6.43343 17.1552 6.43343 17.5C6.43343 17.8447 6.56513 18.1754 6.79955 18.4192C7.03397 18.663 7.35191 18.8 7.68343 18.8Z" stroke="#147382" stroke-width="1.5" stroke-linecap="round" stroke-linejoin="round"/>
</svg>
