<svg width="22" height="23" viewBox="0 0 22 23" fill="none" xmlns="http://www.w3.org/2000/svg">
<path d="M13.8 15C13.6346 17.424 13.0244 19.7969 12 22C11.66 22 11.31 22.05 11 22.05C10.69 22.05 10.3 22.05 10 22C8.97562 19.7969 8.36546 17.424 8.20002 15H13.8ZM15.8 7H21.23C20.6403 5.49231 19.7251 4.13336 18.5496 3.02015C17.3742 1.90694 15.9675 1.06691 14.43 0.56C15.1643 2.6386 15.6281 4.80303 15.81 7H15.8ZM16 11C16 11.67 16 12.34 15.95 13H21.81C22.0634 11.6787 22.0634 10.3213 21.81 9H16V11ZM6.00002 11C6.00002 10.33 6.00002 9.66 6.00002 9H0.190024C-0.0633413 10.3213 -0.0633413 11.6787 0.190024 13H6.05002C6.00002 12.34 6.00002 11.67 6.00002 11ZM14 9H8.05002C8.00002 9.64 8.00002 10.3 8.00002 11C8.00002 11.7 8.00002 12.36 8.05002 13H14C14 12.36 14.05 11.7 14.05 11C14.05 10.3 14 9.64 14 9ZM15.86 15C15.6814 17.1965 15.2209 19.361 14.49 21.44C16.0183 20.9268 17.4151 20.0839 18.5816 18.971C19.748 17.8582 20.6556 16.5025 21.24 15H15.86ZM13.86 7C13.6697 4.58918 13.0392 2.23364 12 0.05C11.7 -4.84288e-08 11.35 0 11 0C10.65 0 10.3 -4.84288e-08 10 0.05C8.98153 2.23762 8.3715 4.593 8.20002 7H13.86ZM6.19002 15H0.760024C1.34973 16.5077 2.26496 17.8666 3.4404 18.9798C4.61584 20.0931 6.02251 20.9331 7.56002 21.44C6.82913 19.361 6.36869 17.1965 6.19002 15ZM6.19002 7C6.36869 4.80347 6.82913 2.63905 7.56002 0.56C6.02251 1.06691 4.61584 1.90694 3.4404 3.02015C2.26496 4.13336 1.34973 5.49231 0.760024 7H6.19002Z" fill="#147382"/>
</svg>
