<svg width="18" height="18" viewBox="0 0 18 18" fill="none" xmlns="http://www.w3.org/2000/svg">
<g clip-path="url(#clip0_32_626)">
<path d="M16.3338 8.18007C15.929 8.18007 15.6004 7.85154 15.6004 7.44674C15.6004 5.38974 14.7996 3.45667 13.3454 2.00174C13.0587 1.71501 13.0587 1.25154 13.3454 0.964806C13.6322 0.678073 14.0956 0.678073 14.3824 0.964806C16.1138 2.69621 17.0671 4.99814 17.0671 7.44674C17.0671 7.85154 16.7386 8.18007 16.3338 8.18007Z" fill="#147382"/>
<path d="M1.66693 8.18007C1.26213 8.18007 0.933594 7.85154 0.933594 7.44674C0.933594 4.99814 1.88693 2.69621 3.61833 0.964806C3.90506 0.678073 4.36853 0.678073 4.65526 0.964806C4.94199 1.25154 4.94199 1.71501 4.65526 2.00174C3.20106 3.45594 2.40026 5.38974 2.40026 7.44674C2.40026 7.85154 2.07173 8.18007 1.66693 8.18007Z" fill="#147382"/>
<path d="M15.8783 12.6028C14.7695 11.6656 14.1337 10.2958 14.1337 8.84449V6.79995C14.1337 4.21935 12.2167 2.08315 9.73366 1.72528V0.933285C9.73366 0.527751 9.40513 0.199951 9.00033 0.199951C8.59553 0.199951 8.26699 0.527751 8.26699 0.933285V1.72528C5.78319 2.08315 3.86699 4.21935 3.86699 6.79995V8.84449C3.86699 10.2958 3.23119 11.6656 2.11579 12.6087C1.83053 12.8529 1.66699 13.2078 1.66699 13.5833C1.66699 14.291 2.24266 14.8666 2.95033 14.8666H15.0503C15.758 14.8666 16.3337 14.291 16.3337 13.5833C16.3337 13.2078 16.1701 12.8529 15.8783 12.6028Z" fill="#147382"/>
<path d="M9.00042 17.8C10.3285 17.8 11.4395 16.8532 11.6947 15.6H6.30615C6.56135 16.8532 7.67235 17.8 9.00042 17.8Z" fill="#147382"/>
</g>
<defs>
<clipPath id="clip0_32_626">
<rect width="17.6" height="17.6" fill="white" transform="translate(0.200195 0.199951)"/>
</clipPath>
</defs>
</svg>
